<svg width="12" height="12" viewBox="0 0 12 12" fill="none" xmlns="http://www.w3.org/2000/svg">
<path d="M5.323 0.651534C5.4318 0.608279 5.55455 0.618314 5.65485 0.678669C7.7878 1.96186 9.7581 4.15312 10.4035 6.2654C10.7289 7.33035 10.7277 8.4149 10.1855 9.3451C9.6437 10.2746 8.60555 10.9744 7.0176 11.3642C6.85845 11.4032 6.69235 11.3344 6.60745 11.1942C6.52255 11.0541 6.5385 10.875 6.6469 10.752C7.29635 10.0151 7.87025 9.1539 7.9539 8.2468C8.0176 7.5563 7.8011 6.77385 6.96975 5.94145C6.9758 6.8273 6.6346 7.565 6.2909 7.98685C6.1992 8.0994 6.0508 8.1489 5.9099 8.11395C5.769 8.079 5.66095 7.9659 5.63245 7.82355C5.49505 7.13655 5.10475 6.83395 4.68905 6.6209C4.66087 7.20625 4.40555 7.6276 4.21973 7.9342C4.16724 8.02085 4.1203 8.0983 4.08559 8.1677C3.53272 9.27345 4.20213 10.0759 4.66528 10.6312C4.70334 10.6768 4.74001 10.7208 4.77449 10.7631C4.88138 10.8943 4.88717 11.0808 4.78864 11.2183C4.6901 11.3559 4.51165 11.4104 4.35306 11.3515C2.92111 10.8189 1.90833 9.8214 1.53333 8.60425C1.15601 7.37965 1.44528 6 2.48526 4.75912C2.81889 4.36106 3.11039 4.03087 3.36706 3.74013C4.26996 2.7174 4.74187 2.18286 5.10035 0.899134C5.13185 0.786374 5.2142 0.694789 5.323 0.651534Z" fill="#EE3434"/>
</svg>
